<?xml version="1.0" standalone="no"?>
<!DOCTYPE svg PUBLIC "-//W3C//DTD SVG 20010904//EN"
 "http://www.w3.org/TR/2001/REC-SVG-20010904/DTD/svg10.dtd">
<svg version="1.0" xmlns="http://www.w3.org/2000/svg"
 width="1047.000000pt" height="1047.000000pt" viewBox="0 0 1047.000000 1047.000000"
 preserveAspectRatio="xMidYMid meet">
<metadata>
Created by potrace 1.14, written by Peter Selinger 2001-2017
</metadata>
<g transform="translate(0.000000,1047.000000) scale(0.100000,-0.100000)"
fill="#000000" stroke="none">
<path d="M5137 9513 c-1 0 -56 -4 -123 -7 -66 -4 -131 -8 -145 -11 -13 -2 -51
-6 -84 -10 -222 -23 -552 -97 -805 -182 -315 -105 -667 -277 -949 -465 -93
-62 -138 -95 -295 -214 -23 -17 -90 -75 -151 -129 -580 -515 -991 -1147 -1224
-1877 -36 -116 -103 -368 -116 -443 -5 -33 -12 -66 -20 -105 -3 -14 -8 -44
-11 -66 -2 -23 -7 -52 -9 -64 -2 -12 -7 -48 -10 -79 -4 -31 -8 -67 -11 -81
-19 -112 -25 -563 -11 -755 5 -60 9 -117 9 -125 0 -8 4 -46 10 -85 5 -38 11
-87 13 -109 12 -109 71 -384 116 -538 16 -57 31 -110 33 -118 2 -8 19 -58 36
-110 198 -587 534 -1130 982 -1585 87 -88 186 -183 220 -212 35 -29 79 -66 98
-83 58 -51 249 -192 355 -262 250 -164 529 -305 815 -413 150 -56 412 -134
510 -151 14 -3 41 -9 60 -14 42 -11 255 -47 325 -55 28 -3 66 -8 85 -10 217
-29 661 -26 915 6 129 17 146 19 225 34 41 8 86 16 100 19 265 45 692 191 984
338 265 133 562 322 750 478 440 365 782 772 1035 1230 155 281 336 729 386
960 2 8 13 51 24 95 40 162 74 353 96 545 26 227 26 747 1 925 -3 17 -7 53
-10 80 -6 50 -10 77 -22 145 -3 19 -8 49 -11 65 -63 408 -281 1009 -495 1364
-21 34 -38 65 -38 67 0 2 -34 56 -77 121 -551 849 -1393 1474 -2343 1738 -199
55 -429 101 -605 120 -33 3 -73 8 -90 10 -92 12 -520 27 -528 18z m473 -337
c19 -3 60 -8 90 -11 94 -10 251 -36 345 -57 50 -11 98 -21 108 -23 10 -2 27
-7 37 -10 10 -3 27 -8 37 -10 10 -2 43 -11 73 -20 73 -21 73 -21 90 -27 8 -3
69 -25 135 -48 66 -23 138 -50 160 -60 22 -10 57 -25 78 -33 20 -9 37 -20 37
-25 0 -10 -100 -153 -173 -247 -21 -27 -273 -367 -465 -628 -72 -97 -142 -192
-156 -209 l-25 -32 -32 23 c-296 219 -632 372 -899 410 -143 20 -165 21 -265
22 -395 0 -749 -130 -1080 -396 -219 -176 -396 -393 -517 -638 -108 -217 -154
-389 -163 -607 -6 -126 -16 -276 -20 -303 -2 -12 -6 -40 -10 -62 -11 -79 -37
-203 -46 -216 -7 -11 -126 -14 -699 -14 -381 0 -696 3 -702 6 -8 5 -8 24 0 66
6 32 14 74 17 93 3 19 21 96 40 170 273 1079 995 1991 1970 2489 235 120 377
177 665 266 30 9 62 18 70 20 8 2 33 8 55 14 48 13 226 50 275 57 19 3 42 7
50 9 8 2 42 7 75 11 33 3 68 8 78 10 10 2 62 6 115 10 53 3 99 8 101 10 5 5
510 -5 551 -10z m1505 -477 c138 -79 445 -285 475 -319 3 -3 30 -25 60 -50
106 -86 334 -306 415 -400 385 -448 618 -851 790 -1365 33 -100 97 -334 109
-399 3 -14 7 -34 10 -44 10 -33 44 -247 51 -317 4 -38 9 -81 11 -95 22 -126
22 -591 0 -785 -3 -22 -7 -64 -10 -93 -3 -29 -8 -63 -11 -75 -2 -12 -7 -38
-10 -57 -60 -412 -220 -882 -429 -1260 -107 -193 -258 -421 -372 -560 -87
-106 -151 -178 -226 -255 l-87 -90 -93 92 c-105 104 -127 122 -217 182 -167
113 -395 195 -601 215 -204 20 -311 38 -456 76 -212 56 -418 148 -594 265
-106 70 -118 87 -169 225 -29 82 -69 228 -76 280 -2 14 -7 41 -10 60 -14 77
-12 276 4 372 9 53 19 99 22 103 3 3 44 -4 90 -14 181 -43 370 -58 484 -39
210 35 312 182 270 389 -15 70 -10 100 17 119 76 52 102 106 94 191 -5 52 -2
66 23 116 34 65 36 126 8 182 l-17 33 56 52 c89 81 118 160 88 235 -8 19 -58
96 -112 170 -116 161 -167 241 -217 340 -45 90 -54 174 -32 296 16 85 15 205
-1 268 l-10 38 43 19 c24 10 92 30 152 45 131 31 168 49 184 86 11 28 14 109
5 154 -2 11 -7 56 -10 100 -12 153 -18 210 -21 235 -2 14 -7 66 -10 115 -4 50
-8 101 -10 115 -2 14 -7 63 -10 110 -8 97 -25 142 -61 159 -42 19 -78 13 -216
-34 -73 -25 -134 -45 -136 -45 -11 0 24 50 209 301 354 480 451 609 458 609 4
0 47 -23 96 -51z m-2140 -744 c172 -24 311 -68 484 -153 120 -60 323 -191 318
-206 -1 -6 -39 -34 -83 -63 -113 -74 -333 -224 -354 -243 -10 -8 -31 -24 -46
-35 -55 -39 -200 -159 -284 -234 -235 -210 -424 -427 -575 -661 -37 -58 -77
-115 -89 -128 -11 -13 -75 -50 -141 -82 -98 -48 -132 -71 -185 -123 -36 -36
-80 -90 -98 -120 -37 -61 -79 -173 -90 -239 -9 -60 -6 -216 6 -259 5 -20 6
-43 1 -50 -6 -11 -97 -14 -484 -17 -314 -3 -475 -1 -475 6 0 6 19 34 43 64
149 186 258 465 292 748 3 25 7 55 9 67 6 27 15 160 21 298 10 228 57 381 194
630 12 22 50 80 85 128 262 368 674 626 1071 673 28 4 51 8 53 9 9 8 251 1
327 -10z m1576 -312 c0 -10 2 -25 3 -33 2 -8 6 -51 10 -95 4 -44 9 -105 12
-135 11 -128 14 -159 20 -225 4 -54 3 -74 -8 -82 -7 -5 -65 -27 -128 -47 -546
-178 -1036 -543 -1402 -1043 l-60 -82 -45 57 c-82 102 -187 177 -305 217 -27
9 -48 20 -48 25 0 13 83 133 174 250 261 337 818 786 1241 1001 152 76 175 87
385 165 129 48 150 52 151 27z m-310 -975 c6 -87 4 -115 -17 -223 -11 -54 -6
-162 10 -227 31 -123 135 -304 311 -544 l45 -62 -42 -33 c-137 -105 -157 -155
-102 -261 13 -26 24 -50 24 -52 0 -3 -18 -15 -41 -28 -70 -39 -87 -99 -47
-170 l23 -40 -22 -18 c-12 -9 -32 -37 -45 -61 -25 -48 -29 -137 -13 -269 9
-75 6 -78 -66 -102 -47 -16 -161 -17 -249 -3 -25 3 -58 9 -75 11 -158 25 -367
107 -497 195 -31 22 -62 39 -67 39 -6 0 -11 4 -11 10 0 12 -65 40 -92 40 -29
0 -76 -27 -89 -51 -31 -59 -15 -119 43 -160 18 -13 35 -26 38 -29 3 -4 46 -31
95 -60 50 -29 99 -59 111 -66 l21 -13 -19 -98 c-21 -104 -30 -365 -16 -475 68
-529 382 -1040 913 -1482 39 -32 79 -65 90 -75 32 -25 197 -146 228 -166 38
-24 29 -28 -34 -16 -384 77 -837 236 -1274 446 -77 37 -195 94 -263 126 -414
198 -878 365 -1327 478 -66 17 -135 33 -154 36 -66 11 -66 12 21 145 150 231
488 788 488 805 0 3 11 24 26 46 32 51 35 57 230 409 182 327 188 343 137 400
-27 30 -37 33 -134 45 -75 8 -174 61 -231 122 -74 78 -126 243 -114 366 20
215 222 396 427 381 144 -11 277 -104 339 -239 27 -58 37 -108 44 -204 6 -84
93 -128 167 -84 34 20 39 32 46 98 7 63 33 116 113 230 263 372 575 657 937
857 69 38 112 48 114 26z m-3409 -934 c25 -5 26 -7 15 -32 -18 -43 -88 -143
-137 -196 -63 -68 -153 -129 -239 -162 -89 -35 -115 -66 -107 -129 6 -48 52
-95 94 -96 15 0 153 0 306 0 182 0 284 -3 292 -10 13 -11 13 -13 -7 -64 -7
-16 -13 -32 -14 -35 -17 -49 -114 -247 -177 -357 -207 -366 -484 -709 -837
-1035 -46 -43 -90 -78 -98 -78 -14 0 -78 127 -140 280 -18 47 -38 94 -43 105
-67 146 -177 574 -215 840 -4 22 -8 51 -10 65 -3 14 -7 56 -11 95 -3 38 -8 86
-10 105 -4 44 -5 556 0 590 2 14 4 39 5 57 2 64 -33 61 668 61 351 1 650 -1
665 -4z m1116 -612 c12 -1 35 -15 50 -30 58 -60 140 -118 204 -147 37 -17 68
-34 68 -39 0 -7 -118 -222 -230 -421 -339 -599 -685 -1143 -740 -1164 -14 -5
-47 -9 -75 -9 -309 6 -665 -145 -863 -364 -14 -16 -33 -28 -42 -28 -26 0 -280
363 -280 400 0 8 43 53 96 100 267 237 571 586 771 885 142 214 299 515 368
710 16 44 32 85 37 92 5 7 31 13 56 15 46 3 534 3 580 0z m-555 -2047 c413
-72 721 -375 813 -800 11 -53 13 -268 3 -320 -5 -27 -12 -63 -15 -79 -7 -39
-41 -140 -62 -185 -24 -49 -44 -47 -222 24 -372 147 -722 355 -1033 613 -115
95 -379 353 -397 388 -14 26 -13 28 57 94 236 223 547 319 856 265z m2828
-111 c95 -37 267 -90 324 -100 16 -3 46 -9 65 -14 19 -5 55 -12 80 -15 25 -3
52 -8 60 -10 8 -2 47 -6 85 -10 288 -25 474 -85 655 -213 78 -55 220 -195 220
-217 0 -20 -42 -57 -189 -167 -64 -49 -127 -97 -141 -108 -48 -38 -81 -36
-162 10 -411 238 -684 442 -950 712 -129 130 -161 168 -144 168 2 0 46 -16 97
-36z m-1751 -183 c35 -12 216 -85 328 -132 105 -45 198 -88 447 -209 279 -135
524 -236 775 -319 111 -37 278 -87 320 -96 8 -2 69 -17 135 -34 66 -16 131
-32 145 -35 14 -3 50 -10 80 -16 30 -6 73 -13 95 -16 51 -7 178 -34 182 -38
17 -17 -289 -157 -497 -228 -145 -49 -388 -115 -495 -134 -120 -21 -210 -35
-255 -40 -30 -3 -71 -7 -90 -10 -54 -6 -276 -17 -355 -17 -81 -1 -344 12 -395
18 -19 2 -57 7 -85 10 -27 3 -61 7 -75 10 -14 2 -41 6 -60 9 -19 2 -80 14
-135 26 -55 12 -111 23 -125 26 -52 10 -81 26 -74 43 48 117 72 204 99 356 6
36 7 229 1 265 -2 14 -7 46 -10 71 -4 25 -9 57 -11 72 -10 54 -65 208 -98 274
-39 76 -130 217 -148 228 -8 6 -8 9 0 15 7 4 71 -15 144 -42 73 -27 143 -53
157 -57z"/>
</g>
</svg>
